<svg id="visual" viewBox="0 0 540 960" width="540" height="960" xmlns="http://www.w3.org/2000/svg" xmlns:xlink="http://www.w3.org/1999/xlink" version="1.1"><rect x="0" y="0" width="540" height="960" fill="#CCCCCC"></rect><defs><linearGradient id="grad1_0" x1="0%" y1="0%" x2="100%" y2="100%"><stop offset="30%" stop-color="#cccccc" stop-opacity="1"></stop><stop offset="70%" stop-color="#cccccc" stop-opacity="1"></stop></linearGradient></defs><defs><linearGradient id="grad2_0" x1="0%" y1="0%" x2="100%" y2="100%"><stop offset="30%" stop-color="#cccccc" stop-opacity="1"></stop><stop offset="70%" stop-color="#cccccc" stop-opacity="1"></stop></linearGradient></defs><g transform="translate(540, 0)"><path d="M0 351C-36.9 348.4 -73.7 345.9 -108.5 333.8C-143.2 321.8 -175.8 300.2 -196.9 271C-218.1 241.8 -227.8 205 -241.1 175.2C-254.4 145.3 -271.2 122.3 -290.1 94.3C-309 66.2 -330 33.1 -351 0L0 0Z" fill="#FFFFFF"></path></g><g transform="translate(0, 960)"><path d="M0 -351C32.2 -329.4 64.3 -307.8 95.8 -294.8C127.3 -281.8 158 -277.4 193.4 -266.2C228.8 -254.9 268.7 -236.8 284 -206.3C299.2 -175.8 289.7 -132.9 296.7 -96.4C303.8 -60 327.4 -30 351 0L0 0Z" fill="#FFFFFF"></path></g></svg>