<svg id="visual" viewBox="0 0 540 960" width="540" height="960" xmlns="http://www.w3.org/2000/svg" xmlns:xlink="http://www.w3.org/1999/xlink" version="1.1"><rect x="0" y="0" width="540" height="960" fill="#CCCCCC"></rect><defs><linearGradient id="grad1_0" x1="0%" y1="0%" x2="100%" y2="100%"><stop offset="30%" stop-color="#cccccc" stop-opacity="1"></stop><stop offset="70%" stop-color="#cccccc" stop-opacity="1"></stop></linearGradient></defs><defs><linearGradient id="grad2_0" x1="0%" y1="0%" x2="100%" y2="100%"><stop offset="30%" stop-color="#cccccc" stop-opacity="1"></stop><stop offset="70%" stop-color="#cccccc" stop-opacity="1"></stop></linearGradient></defs><g transform="translate(540, 0)"><path d="M0 486C-44.1 434.9 -88.2 383.8 -152.7 368.6C-217.2 353.4 -302.1 374.1 -343.7 343.7C-385.2 313.2 -383.5 231.5 -400 165.7C-416.5 99.9 -451.3 49.9 -486 0L0 0Z" fill="#FFFFFF"></path></g><g transform="translate(0, 960)"><path d="M0 -486C58 -461.4 116 -436.8 170.7 -412.1C225.3 -387.3 276.6 -362.2 326 -326C375.3 -289.7 422.7 -242.2 449 -186C475.3 -129.8 480.7 -64.9 486 0L0 0Z" fill="#FFFFFF"></path></g></svg>